:FULLY-SPECIFIED
:FORCE-ALL-JOINTS-BE-3DOF
:DEGREES
815
root 1.73353 16.6332 22.4005 4.05063 12.8426 364.611
lfemur -41.7938 1.73523 -6.46592
ltibia 33.7414 0 0
lfoot -12.3649 -1.79538 0
ltoes 12.4347 0 0
rfemur -4.4468 1.47426 20.4722
rtibia 28.9418 0 0
rfoot -23.1056 -10.1768 0
rtoes -19.013 0 0
lowerback 1.98812 4.96992 4.72798
upperback 0.118383 6.7331 -0.89334
thorax -0.336312 3.35872 -3.67492
lowerneck -6.13676 -2.31831 2.17907
upperneck -1.37343 -3.23578 1.61815
head 0.587816 -1.59995 0.0616064
lclavicle -8.432e-14 -7.20169e-15 0
lhumerus -55.2883 -8.61565 95.1397
lradius 57.8597 0 0
lwrist 21.2609 0 0
lhand -11.6028 4.32002 0
lfingers 7.12502 0 0
lthumb 14.412 33.5382 0
rclavicle -8.432e-14 -7.20169e-15 0
rhumerus -33.823 46.2312 -116.391
rradius 69.7861 0 0
rwrist 1.24774 0 0
rhand -14.8651 -26.9322 0
rfingers 7.12502 0 0
rthumb 11.2946 -776.617 0
816
root 1.73076 16.6148 22.528 3.99767 13.234 365.96
lfemur -41.6898 1.86374 -6.5647
ltibia 33.6358 0 0
lfoot -12.4088 -1.89255 0
ltoes 12.2944 0 0
rfemur -4.45571 1.41741 20.3541
rtibia 28.9996 0 0
rfoot -23.0287 -10.2475 0
rtoes -18.8322 0 0
lowerback 1.97592 4.95814 4.69895
upperback 0.123294 6.71724 -0.904781
thorax -0.326384 3.35079 -3.67061
lowerneck -6.13935 -2.34056 2.15962
upperneck -1.34173 -3.26567 1.63348
head 0.600642 -1.61405 0.0681244
lclavicle -8.40677e-14 -7.03877e-15 0
lhumerus -55.5055 -8.74962 95.5507
lradius 57.8884 0 0
lwrist 21.1707 0 0
lhand -11.2879 4.42095 0
lfingers 7.12502 0 0
lthumb 14.7102 33.5695 0
rclavicle -8.40677e-14 -7.03877e-15 0
rhumerus -34.0407 46.3324 -116.752
rradius 70.0417 0 0
rwrist 1.23399 0 0
rhand -14.7106 -26.7608 0
rfingers 7.12502 0 0
rthumb 11.4436 -776.439 0
817
root 1.72922 16.5973 22.6555 3.94434 13.6122 367.249
lfemur -41.5824 1.99553 -6.66176
ltibia 33.5468 0 0
lfoot -12.4484 -1.99501 0
ltoes 12.1568 0 0
rfemur -4.47086 1.35791 20.226
rtibia 29.0675 0 0
rfoot -22.9344 -10.3242 0
rtoes -18.6259 0 0
lowerback 1.96468 4.94394 4.6665
upperback 0.127999 6.69802 -0.916798
thorax -0.317491 3.3412 -3.66488
lowerneck -6.14221 -2.3651 2.13778
upperneck -1.30803 -3.29856 1.6505
head 0.614354 -1.62961 0.0754331
lclavicle -8.37835e-14 -6.8657e-15 0
lhumerus -55.7104 -8.892 95.9517
lradius 57.9168 0 0
lwrist 21.0784 0 0
lhand -10.9639 4.52315 0
lfingers 7.12502 0 0
lthumb 15.0171 33.5998 0
rclavicle -8.37835e-14 -6.8657e-15 0
rhumerus -34.2645 46.4233 -117.102
rradius 70.3216 0 0
rwrist 1.21673 0 0
rhand -14.5543 -26.585 0
rfingers 7.12502 0 0
rthumb 11.5944 -776.256 0
818
root 1.72887 16.5804 22.7829 3.89066 13.9774 368.479
lfemur -41.4716 2.1305 -6.75711
ltibia 33.474 0 0
lfoot -12.4838 -2.10263 0
ltoes 12.022 0 0
rfemur -4.49215 1.29582 20.0881
rtibia 29.1454 0 0
rfoot -22.8232 -10.4067 0
rtoes -18.3945 0 0
lowerback 1.95438 4.92735 4.63072
upperback 0.132501 6.67552 -0.929379
thorax -0.309613 3.32998 -3.65778
lowerneck -6.14534 -2.39189 2.11361
upperneck -1.27236 -3.33439 1.66916
head 0.62893 -1.64658 0.0835143
lclavicle -8.3468e-14 -6.68276e-15 0
lhumerus -55.9032 -9.04262 96.3427
lradius 57.9451 0 0
lwrist 20.9838 0 0
lhand -10.6308 4.6266 0
lfingers 7.12502 0 0
lthumb 15.3325 33.6292 0
rclavicle -8.3468e-14 -6.68276e-15 0
rhumerus -34.4941 46.5042 -117.443
rradius 70.6252 0 0
rwrist 1.19601 0 0
rhand -14.3962 -26.4049 0
rfingers 7.12502 0 0
rthumb 11.7468 -776.068 0
819
root 1.72969 16.5643 22.9101 3.83666 14.3299 369.651
lfemur -41.3574 2.26856 -6.85074
ltibia 33.417 0 0
lfoot -12.5151 -2.2153 0
ltoes 11.8898 0 0
rfemur -4.51946 1.23119 19.9405
rtibia 29.233 0 0
rfoot -22.6954 -10.495 0
rtoes -18.1388 0 0
lowerback 1.94499 4.90844 4.59166
upperback 0.136802 6.64979 -0.942517
thorax -0.30273 3.31716 -3.64934
lowerneck -6.14874 -2.42085 2.08718
upperneck -1.23479 -3.37308 1.68943
head 0.644349 -1.66493 0.0923495
lclavicle -8.31221e-14 -6.49022e-15 0
lhumerus -56.0841 -9.20131 96.724
lradius 57.9732 0 0
lwrist 20.8872 0 0
lhand -10.289 4.73127 0
lfingers 7.12502 0 0
lthumb 15.6562 33.6577 0
rclavicle -8.31221e-14 -6.49022e-15 0
rhumerus -34.7295 46.5752 -117.774
rradius 70.9519 0 0
rwrist 1.1719 0 0
rhand -14.2364 -26.2208 0
rfingers 7.12502 0 0
rthumb 11.9008 -775.876 0
820
root 1.73166 16.549 23.0373 3.78235 14.6697 370.766
lfemur -41.24 2.4096 -6.94266
ltibia 33.3756 0 0
lfoot -12.5423 -2.33288 0
ltoes 11.7602 0 0
rfemur -4.5527 1.16406 19.7835
rtibia 29.3301 0 0
rfoot -22.5515 -10.5888 0
rtoes -17.8593 0 0
lowerback 1.93651 4.88725 4.54942
upperback 0.140905 6.6209 -0.956202
thorax -0.296821 3.30277 -3.63958
lowerneck -6.1524 -2.45194 2.05855
upperneck -1.19534 -3.41456 1.71126
head 0.660592 -1.68462 0.101921
lclavicle -8.27461e-14 -6.28833e-15 0
lhumerus -56.2533 -9.36791 97.0957
lradius 58.001 0 0
lwrist 20.7885 0 0
lhand -9.93868 4.83714 0
lfingers 7.12502 0 0
lthumb 15.9879 33.6853 0
rclavicle -8.27461e-14 -6.28833e-15 0
rhumerus -34.9702 46.6363 -118.096
rradius 71.301 0 0
rwrist 1.14447 0 0
rhand -14.0751 -26.0327 0
rfingers 7.12502 0 0
rthumb 12.0563 -775.68 0
821
root 1.73474 16.5343 23.1643 3.72776 14.9971 371.826
lfemur -41.1193 2.55352 -7.03287
ltibia 33.3492 0 0
lfoot -12.5657 -2.45525 0
ltoes 11.633 0 0
rfemur -4.59177 1.09448 19.6173
rtibia 29.4366 0 0
rfoot -22.3919 -10.688 0
rtoes -17.5567 0 0
lowerback 1.9289 4.86383 4.50405
upperback 0.144812 6.58893 -0.970424
thorax -0.291866 3.28685 -3.62856
lowerneck -6.15631 -2.48509 2.02777
upperneck -1.15407 -3.45875 1.73463
head 0.677638 -1.70562 0.112209
lclavicle -8.23409e-14 -6.07737e-15 0
lhumerus -56.4111 -9.54226 97.458
lradius 58.0286 0 0
lwrist 20.6879 0 0
lhand -9.57999 4.94419 0
lfingers 7.12502 0 0
lthumb 16.3276 33.7121 0
rclavicle -8.23409e-14 -6.07737e-15 0
rhumerus -35.2162 46.6877 -118.408
rradius 71.672 0 0
rwrist 1.11378 0 0
rhand -13.9124 -25.8408 0
rfingers 7.12502 0 0
rthumb 12.2131 -775.48 0
822
root 1.73892 16.5204 23.2912 3.6729 15.3123 372.83
lfemur -40.9953 2.70023 -7.12136
ltibia 33.3376 0 0
lfoot -12.5853 -2.58228 0
ltoes 11.5082 0 0
rfemur -4.63654 1.0225 19.4422
rtibia 29.5521 0 0
rfoot -22.2168 -10.7925 0
rtoes -17.2316 0 0
lowerback 1.92214 4.83823 4.45565
upperback 0.148527 6.55394 -0.985175
thorax -0.287843 3.26944 -3.61629
lowerneck -6.16048 -2.52025 1.9949
upperneck -1.11102 -3.50556 1.7595
head 0.695466 -1.72789 0.123197
lclavicle -8.19071e-14 -5.8576e-15 0
lhumerus -56.5577 -9.72417 97.8109
lradius 58.056 0 0
lwrist 20.5854 0 0
lhand -9.21316 5.05237 0
lfingers 7.12502 0 0
lthumb 16.6749 33.7379 0
rclavicle -8.19071e-14 -5.8576e-15 0
rhumerus -35.4672 46.7295 -118.71
rradius 72.0641 0 0
rwrist 1.0799 0 0
rhand -13.7482 -25.6453 0
rfingers 7.12502 0 0
rthumb 12.3714 -775.276 0
823
root 1.74416 16.5071 23.4179 3.6178 15.6154 373.781
lfemur -40.8682 2.84962 -7.20815
ltibia 33.3403 0 0
lfoot -12.6011 -2.71387 0
ltoes 11.3857 0 0
rfemur -4.68693 0.948185 19.2582
rtibia 29.6766 0 0
rfoot -22.0267 -10.902 0
rtoes -16.8846 0 0
lowerback 1.91622 4.81049 4.40428
upperback 0.152051 6.516 -1.00045
thorax -0.284733 3.25056 -3.60281
lowerneck -6.16489 -2.55736 1.96001
upperneck -1.06625 -3.55494 1.78582
head 0.714056 -1.75139 0.134865
lclavicle -8.14452e-14 -5.62928e-15 0
lhumerus -56.6933 -9.91349 98.1547
lradius 58.0831 0 0
lwrist 20.4811 0 0
lhand -8.83842 5.16168 0
lfingers 7.12502 0 0
lthumb 17.0297 33.763 0
rclavicle -8.14452e-14 -5.62928e-15 0
rhumerus -35.723 46.7618 -119.002
rradius 72.4768 0 0
rwrist 1.04289 0 0
rhand -13.5828 -25.4463 0
rfingers 7.12502 0 0
rthumb 12.5308 -775.068 0
